<svg xmlns="http://www.w3.org/2000/svg" version="1.1" xmlns:xlink="http://www.w3.org/1999/xlink" xmlns:svgjs="http://svgjs.dev/svgjs" width="1440" height="560" preserveAspectRatio="none" viewBox="0 0 1440 560"><g mask="url(&quot;#SvgjsMask1066&quot;)" fill="none"><rect width="1440" height="560" x="0" y="0" fill="rgba(21, 21, 22, 1)"></rect><g mask="url(&quot;#SvgjsMask1067&quot;)"><path d="M365.5 236.5L408.5 279.5L451.5 279.5L494.5 279.5M279.5 236.5L322.5 279.5L365.5 279.5L408.5 322.5M193.5 236.5L236.5 279.5L279.5 279.5M-21.5 279.5L21.5 279.5L64.5 279.5L107.5 279.5L150.5 236.5L193.5 236.5L236.5 236.5L279.5 236.5L322.5 236.5L365.5 236.5L408.5 236.5L451.5 236.5" stroke="rgba(205, 23, 23, 1)" stroke-width="7.17"></path><path d="M440.75 236.5 a10.75 10.75 0 1 0 21.5 0 a10.75 10.75 0 1 0 -21.5 0zM483.75 279.5 a10.75 10.75 0 1 0 21.5 0 a10.75 10.75 0 1 0 -21.5 0zM397.75 322.5 a10.75 10.75 0 1 0 21.5 0 a10.75 10.75 0 1 0 -21.5 0zM268.75 279.5 a10.75 10.75 0 1 0 21.5 0 a10.75 10.75 0 1 0 -21.5 0z" fill="rgba(205, 23, 23, 1)"></path><path d="M107.5 322.5L150.5 322.5L193.5 322.5L236.5 322.5M-21.5 322.5L21.5 322.5L64.5 322.5L107.5 322.5L150.5 279.5" stroke="rgba(205, 23, 23, 1)" stroke-width="7.17"></path><path d="M139.75 279.5 a10.75 10.75 0 1 0 21.5 0 a10.75 10.75 0 1 0 -21.5 0zM225.75 322.5 a10.75 10.75 0 1 0 21.5 0 a10.75 10.75 0 1 0 -21.5 0z" fill="rgba(205, 23, 23, 1)"></path><path d="M537.5 193.5L580.5 150.5L623.5 150.5M408.5 193.5L451.5 150.5L494.5 150.5L537.5 150.5L580.5 107.5M580.5 193.5L623.5 236.5M64.5 236.5L107.5 193.5M-21.5 236.5L21.5 236.5L64.5 236.5L107.5 236.5L150.5 193.5L193.5 193.5L236.5 193.5L279.5 193.5L322.5 193.5L365.5 193.5L408.5 193.5L451.5 193.5L494.5 193.5L537.5 193.5L580.5 193.5L623.5 193.5" stroke="rgba(205, 23, 23, 1)" stroke-width="7.17"></path><path d="M612.75 193.5 a10.75 10.75 0 1 0 21.5 0 a10.75 10.75 0 1 0 -21.5 0zM612.75 150.5 a10.75 10.75 0 1 0 21.5 0 a10.75 10.75 0 1 0 -21.5 0zM569.75 107.5 a10.75 10.75 0 1 0 21.5 0 a10.75 10.75 0 1 0 -21.5 0zM612.75 236.5 a10.75 10.75 0 1 0 21.5 0 a10.75 10.75 0 1 0 -21.5 0zM96.75 193.5 a10.75 10.75 0 1 0 21.5 0 a10.75 10.75 0 1 0 -21.5 0z" fill="rgba(205, 23, 23, 1)"></path><path d="M279.5 365.5L322.5 322.5L365.5 322.5M236.5 365.5L279.5 408.5M150.5 365.5L193.5 408.5L236.5 408.5M-21.5 365.5L21.5 365.5L64.5 365.5L107.5 365.5L150.5 365.5L193.5 365.5L236.5 365.5L279.5 365.5L322.5 365.5L365.5 365.5L408.5 365.5" stroke="rgba(205, 23, 23, 1)" stroke-width="7.17"></path><path d="M397.75 365.5 a10.75 10.75 0 1 0 21.5 0 a10.75 10.75 0 1 0 -21.5 0zM354.75 322.5 a10.75 10.75 0 1 0 21.5 0 a10.75 10.75 0 1 0 -21.5 0zM268.75 408.5 a10.75 10.75 0 1 0 21.5 0 a10.75 10.75 0 1 0 -21.5 0zM225.75 408.5 a10.75 10.75 0 1 0 21.5 0 a10.75 10.75 0 1 0 -21.5 0z" fill="rgba(205, 23, 23, 1)"></path><path d="M21.5 408.5L64.5 451.5L107.5 494.5L150.5 494.5M-21.5 408.5L21.5 408.5L64.5 408.5L107.5 408.5" stroke="rgba(17, 66, 221, 1)" stroke-width="7.17"></path><path d="M96.75 408.5 a10.75 10.75 0 1 0 21.5 0 a10.75 10.75 0 1 0 -21.5 0zM139.75 494.5 a10.75 10.75 0 1 0 21.5 0 a10.75 10.75 0 1 0 -21.5 0z" fill="rgba(17, 66, 221, 1)"></path><path d="M64.5 150.5L107.5 107.5L150.5 107.5L193.5 107.5M21.5 150.5L64.5 107.5M-21.5 150.5L21.5 150.5L64.5 150.5L107.5 150.5L150.5 150.5L193.5 150.5" stroke="rgba(17, 66, 221, 1)" stroke-width="7.17"></path><path d="M182.75 150.5 a10.75 10.75 0 1 0 21.5 0 a10.75 10.75 0 1 0 -21.5 0zM182.75 107.5 a10.75 10.75 0 1 0 21.5 0 a10.75 10.75 0 1 0 -21.5 0zM53.75 107.5 a10.75 10.75 0 1 0 21.5 0 a10.75 10.75 0 1 0 -21.5 0z" fill="rgba(17, 66, 221, 1)"></path></g></g><defs><mask id="SvgjsMask1066"><rect width="1440" height="560" fill="#ffffff"></rect></mask><mask id="SvgjsMask1067"><rect width="1440" height="560" fill="white"></rect><path d="M446.12 236.5 a5.38 5.38 0 1 0 10.76 0 a5.38 5.38 0 1 0 -10.76 0zM489.12 279.5 a5.38 5.38 0 1 0 10.76 0 a5.38 5.38 0 1 0 -10.76 0zM403.12 322.5 a5.38 5.38 0 1 0 10.76 0 a5.38 5.38 0 1 0 -10.76 0zM274.12 279.5 a5.38 5.38 0 1 0 10.76 0 a5.38 5.38 0 1 0 -10.76 0z" fill="black"></path><path d="M145.12 279.5 a5.38 5.38 0 1 0 10.76 0 a5.38 5.38 0 1 0 -10.76 0zM231.12 322.5 a5.38 5.38 0 1 0 10.76 0 a5.38 5.38 0 1 0 -10.76 0z" fill="black"></path><path d="M618.12 193.5 a5.38 5.38 0 1 0 10.76 0 a5.38 5.38 0 1 0 -10.76 0zM618.12 150.5 a5.38 5.38 0 1 0 10.76 0 a5.38 5.38 0 1 0 -10.76 0zM575.12 107.5 a5.38 5.38 0 1 0 10.76 0 a5.38 5.38 0 1 0 -10.76 0zM618.12 236.5 a5.38 5.38 0 1 0 10.76 0 a5.38 5.38 0 1 0 -10.76 0zM102.12 193.5 a5.38 5.38 0 1 0 10.76 0 a5.38 5.38 0 1 0 -10.76 0z" fill="black"></path><path d="M403.12 365.5 a5.38 5.38 0 1 0 10.76 0 a5.38 5.38 0 1 0 -10.76 0zM360.12 322.5 a5.38 5.38 0 1 0 10.76 0 a5.38 5.38 0 1 0 -10.76 0zM274.12 408.5 a5.38 5.38 0 1 0 10.76 0 a5.38 5.38 0 1 0 -10.76 0zM231.12 408.5 a5.38 5.38 0 1 0 10.76 0 a5.38 5.38 0 1 0 -10.76 0z" fill="black"></path><path d="M102.12 408.5 a5.38 5.38 0 1 0 10.76 0 a5.38 5.38 0 1 0 -10.76 0zM145.12 494.5 a5.38 5.38 0 1 0 10.76 0 a5.38 5.38 0 1 0 -10.76 0z" fill="black"></path><path d="M188.12 150.5 a5.38 5.38 0 1 0 10.76 0 a5.38 5.38 0 1 0 -10.76 0zM188.12 107.5 a5.38 5.38 0 1 0 10.76 0 a5.38 5.38 0 1 0 -10.76 0zM59.12 107.5 a5.38 5.38 0 1 0 10.76 0 a5.38 5.38 0 1 0 -10.76 0z" fill="black"></path></mask></defs></svg>